<?xml version="1.0" encoding="utf-8"?>
<!-- Generator: Adobe Illustrator 25.0.1, SVG Export Plug-In . SVG Version: 6.00 Build 0)  -->
<svg version="1.1" id="Layer_1" xmlns="http://www.w3.org/2000/svg" xmlns:xlink="http://www.w3.org/1999/xlink" x="0px" y="0px"
	 viewBox="0 0 2527.66 1550.3" style="enable-background:new 0 0 2527.66 1550.3;" xml:space="preserve" fill="#3751a7">
<path d="M752.36,513.83c-105.01,133.02-330.2,227.53-498.23,227.53c-115.51,0-231.02-63.01-231.02-191.36
	c0-21.01,9.33-49.01,35-49.01c25.67,0,28,24.51,28,44.34c0,96.85,94.51,134.18,178.52,134.18c133.02,0,337.21-77.01,424.72-178.52
	c9.34-10.5,17.5-22.17,17.5-36.17c0-45.51-74.68-64.17-108.51-68.84c-164.52-24.5-336.04-3.5-491.23-74.68
	c-39.67-18.67-94.51-54.84-94.51-105.01c0-140.01,343.04-172.69,445.72-172.69c74.68,0,298.7,19.84,298.7,123.68
	c0,30.34-36.17,67.67-66.51,67.67c-17.5,0-32.67-11.66-32.67-30.34c0-16.33,12.83-28,22.17-39.67
	C640.35,111.28,505,99.61,441.99,99.61c-95.68,0-242.69,21-326.7,70.01c-14,8.17-35,21.01-35,40.84
	c0,57.17,185.52,98.01,231.03,103.84c84.01,11.67,169.18,12.84,254.36,17.5c68.84,4.67,212.36,24.5,212.36,119.02
	C778.03,474.16,767.53,496.33,752.36,513.83z"/>
<path d="M2490.85,493.99c-39.67,0-50.17,130.68-120.18,130.68c-46.67,0-66.51-77.01-73.51-110.85
	c72.34-92.18,152.85-242.7,152.85-360.54c0-37.34-18.67-86.35-63.01-86.35c-110.85,0-155.19,318.53-155.19,403.71
	c0,10.05,0.34,20.88,1.12,32.15c-24.46,38.87-42.12,119.54-101.45,119.54c-43.17,0-51.34-67.67-51.34-100.34
	c0-22.17,7-43.17,7-65.35c0-8.16-2.33-16.33-8.17-22.17c3.5-5.83,5.83-11.67,5.83-18.67c0-32.68-38.5-49.01-66.51-49.01
	c-64.2,0-132.89,64.57-172.65,134.69c-22.3,27.35-37,96.34-92.2,96.34c-58.34,0-8.16-171.52-103.84-171.52
	c-39.67,0-86.35,70.01-105.01,100.35l4.67-63.01c89.84-94.51,166.85-227.53,166.85-361.71c0-38.5-7-92.18-57.17-92.18
	c-130.55,0-166.1,354.29-172.66,502.38c-33.18,43.48-73.38,89.19-133.04,89.19c-36.17,0-60.68-22.17-68.84-57.18
	c68.84-2.33,138.85-71.17,138.85-141.18c0-39.67-23.33-70.01-64.17-70.01c-85.24,0-137.25,102.95-139.89,179.46
	c-29.02,43.04-56.89,134.42-108.63,134.42c-74.68,0,5.83-201.86-99.18-201.86c-45.51,0-87.51,42.01-115.51,73.51
	c0-31.5,7-135.35-38.5-135.35c-21.01,0-37.34,16.34-37.34,37.34c0,24.51,10.5,51.34,10.5,77.01c0,23.34-7,105.01-21,123.68
	c-5.83,8.17-12.84,18.67-12.84,28.01c0,18.66,19.84,26.83,35,26.83c31.51,0,114.35-169.19,161.02-169.19c8.17,0,10.5,8.17,11.67,14
	c16.33,68.84-12.84,190.18,96.84,190.18c52.68,0,103.6-58.07,136.82-113.99c20.74,38.77,57.86,66.15,108.2,66.15
	c48.79,0,99.44-28.59,138.33-66.44c-0.97,35.61-3.72,70.57-11.16,106.12c-1.17,2.33-1.17,5.83-1.17,8.16
	c0,16.34,11.67,30.34,28,30.34c28,0,33.84-24.5,39.67-46.67c10.5-52.51,53.68-182.03,103.84-204.19
	c29.17,57.17,3.5,168.01,103.84,168.01c20.14,0,44.19-10.59,66.75-26.77c10.21,45.97,49.97,80.45,100.1,80.45
	c53.68,0,99.18-42.01,126.02-85.18c18.67,31.5,47.84,53.68,85.18,53.68c52.18,0,97.87-36.12,126.59-81.51
	c18.04,48,50.51,86.18,106.76,86.18c75.84,0,155.19-95.68,155.19-164.52C2514.18,505.66,2507.18,493.99,2490.85,493.99z
	 M1650.77,72.78c5.83,14,7,30.34,7,45.5c0,92.18-52.51,197.19-106.18,268.37C1560.92,313.14,1598.26,120.61,1650.77,72.78z
	 M1349.74,387.81c10.5,0,16.33,21.01,16.33,29.17c0,31.51-38.5,66.51-70.01,66.51c-4.67,0-9.33-1.17-14-2.33
	C1285.56,449.66,1308.9,387.81,1349.74,387.81z M2017.14,527.83c0,47.84-43.17,123.69-96.85,123.69
	c-29.17,0-46.67-21.01-46.67-49.01c0-53.67,73.51-172.68,133.01-172.68c8.17,0,15.17,2.33,21,5.83c-10.5,15.17-14,35-14,53.68
	C2013.63,502.16,2017.14,515,2017.14,527.83z M2373,135.79c3.5-2.33,7-4.67,10.5-5.83c9.34,9.34,10.5,22.17,10.5,35
	c0,75.84-60.67,194.86-100.34,257.86C2295.99,350.48,2315.83,188.29,2373,135.79z"/>
<g>
	<path d="M1587.3,1177.71c19.13-29.2,32.22-62.43,32.22-96.66c0-113.77-123.84-173.18-221.51-186.27
		c-36.25-5.04-72.5-7.05-108.74-7.05c-150.02,0-322.2,41.28-444.03,132.91c-18.12,14.09-36.25,35.24-36.25,60.41
		c0,47.33,74.51,69.48,111.77,69.48c15.1,0,44.3-4.03,44.3-24.16c0-37.26-86.59-26.18-98.67-51.35
		c1.01-10.07,27.19-29.2,33.23-34.23c46.32-34.23,111.77-60.41,180.23-78.53v7.04c0,76.52-13.09,150.03-20.14,225.54
		c-34.23,5.04-81.55,22.15-81.55,64.44c0,36.25,42.29,55.38,71.49,67.46c-6.04,54.37-11.08,109.75-11.08,166.14
		c0,21.14,1.01,54.37,30.21,54.37c24.16,0,27.18-23.16,27.18-41.28c0-55.37-1.01-108.74,7.05-163.11
		c32.22,5.04,65.45,8.06,97.67,8.06C1340.62,1350.9,1507.76,1300.55,1587.3,1177.71z M1050.64,1270.35
		c-7.05-5.04-15.11-9.06-21.15-16.11c7.05-4.03,15.11-6.04,23.16-7.05L1050.64,1270.35z M1228.85,1300.55
		c-41.28,0-83.57-6.04-122.84-18.12c0-13.09,1.01-26.18,3.02-38.26c17.11,2.01,34.23,7.05,51.35,7.05c14.1,0,30.21-4.03,30.21-21.15
		c0-26.18-56.38-34.23-76.52-36.25c4.03-65.44,17.11-130.89,17.11-196.34c0-12.08-1.01-31.21-8.05-44.3
		c58.4-12.08,117.8-18.12,166.13-18.12c94.65,0,273.87,26.18,273.87,151.03C1563.13,1226.05,1343.64,1300.55,1228.85,1300.55z"/>
	<path d="M2486.42,1357.94c-34.23,0-43.3,112.77-103.71,112.77c-40.28,0-57.39-66.45-63.43-95.65
		c62.43-79.55,131.9-209.43,131.9-311.12c0-32.22-16.11-74.51-54.37-74.51c-95.65,0-133.92,274.87-133.92,348.38
		c0,10.49,0.44,21.98,1.46,33.92c-28.91,38.07-63.89,78.85-116.24,78.85c-31.21,0-52.36-19.13-59.4-49.34
		c59.4-2.01,119.82-61.42,119.82-121.83c0-34.23-20.14-60.41-55.38-60.41c-71.31,0-115.63,83.46-120.36,148.72
		c-25.31,28.57-56.29,85.88-103.15,85.88c-31.21,0-50.34-46.31-51.35-72.49l1.01-2.01c25.17-56.39,59.4-104.72,79.54-164.12h72.5
		c12.08,0,22.15-10.07,22.15-22.15c0-29.2-62.43-24.17-83.57-25.18c2.01-13.09,3.02-27.18,3.02-40.27c0-29.2-4.03-88.61-44.3-88.61
		c-47.32,0-78.53,88.61-89.61,126.87c-21.14-1.01-72.5-8.05-72.5,24.17c0,27.18,43.3,25.17,61.42,25.17
		c-6.04,38.26-9.06,75.52-9.06,113.77c0,13.6,0.48,29.28,1.99,45.59c-18.78,35.56-35.46,94.36-82.53,94.36
		c-37.26,0-44.3-58.4-44.3-86.59c0-19.13,6.04-37.26,6.04-56.39c0-7.04-2.01-14.09-7.05-19.13c3.02-5.04,5.04-10.07,5.04-16.11
		c0-28.2-33.23-42.29-57.39-42.29c-84.58,0-178.22,129.89-178.22,208.42c0,49.33,38.26,89.62,88.6,89.62
		c46.32,0,85.59-36.25,108.74-73.5c16.11,27.18,41.28,46.32,73.5,46.32c43.13,0,81.03-28.65,105.94-65.48
		c14.55,32.91,39.13,57.42,80.33,57.42c43.78,0,90.65-37.02,123.53-76.18c16.28,39.68,50.48,69.13,98.97,69.13
		c48.11,0,98.25-32.23,133-71.77c14.08,48.84,42.71,90.91,97.57,90.91c65.45,0,133.92-82.57,133.92-141.97
		C2506.55,1368.01,2500.51,1357.94,2486.42,1357.94z M1639.66,1387.14c0,41.28-37.26,106.74-83.57,106.74
		c-25.17,0-40.27-18.13-40.27-42.3c0-46.31,63.43-149.02,114.78-149.02c7.05,0,13.09,2.01,18.12,5.04
		c-9.06,13.09-12.08,30.21-12.08,46.32C1636.64,1364.99,1639.66,1376.07,1639.66,1387.14z M1921.58,1097.17
		c3.02,10.07,4.03,21.14,4.03,31.21c0,13.09-2.01,26.18-5.04,39.26h-32.21C1896.41,1143.48,1907.48,1119.32,1921.58,1097.17z
		 M1878.29,1215.98h30.21c-12.08,35.24-26.18,70.48-42.29,104.72C1866.2,1285.45,1871.24,1250.21,1878.29,1215.98z M2145.09,1266.32
		c9.06,0,14.09,18.13,14.09,25.17c0,27.19-33.22,57.4-60.41,57.4c-4.03,0-8.05-1.01-12.08-2.01
		C2089.71,1319.69,2109.85,1266.32,2145.09,1266.32z M2384.72,1048.83c3.02-2.01,6.04-4.03,9.06-5.04
		c8.06,8.06,9.06,19.13,9.06,30.21c0,65.45-52.36,168.15-86.59,222.52C2318.27,1234.1,2335.38,1094.15,2384.72,1048.83z"/>
</g>
</svg>
